<svg width="244pt" height="52pt" viewBox="0.00 0.00 244.32 52.00" xmlns="http://www.w3.org/2000/svg" xmlns:xlink="http://www.w3.org/1999/xlink">
  <g id="graph0" class="graph" transform="scale(1 1) rotate(0) translate(4 48)">
    <title>finite_state_machine</title>
    <polygon fill="#ffffff" stroke="transparent" points="-4,4 -4,-48 240.3156,-48 240.3156,4 -4,4"></polygon>
    <!-- 0 -->
    <g id="node1" class="node">
      <title>0</title>
      <ellipse fill="none" stroke="#000000" cx="132.101" cy="-22" rx="18" ry="18"></ellipse>
      <text text-anchor="middle" x="132.101" y="-17.8" font-family="Times,serif" font-size="14.00" fill="#000000">0</text>
    </g>
    <!-- 1 -->
    <g id="node2" class="node">
      <title>1</title>
      <ellipse fill="none" stroke="#000000" cx="214.3156" cy="-22" rx="18" ry="18"></ellipse>
      <ellipse fill="none" stroke="#000000" cx="214.3156" cy="-22" rx="22" ry="22"></ellipse>
      <text text-anchor="middle" x="214.3156" y="-17.8" font-family="Times,serif" font-size="14.00" fill="#000000">1</text>
    </g>
    <!-- 0&#45;&gt;1 -->
    <g id="edge2" class="edge">
      <title>0-&gt;1</title>
      <path fill="none" stroke="#000000" d="M150.3471,-22C159.5719,-22 171.0489,-22 181.7244,-22"></path>
      <polygon fill="#000000" stroke="#000000" points="182.0198,-25.5001 192.0197,-22 182.0197,-18.5001 182.0198,-25.5001"></polygon>
      <text text-anchor="middle" x="171.2083" y="-26.2" font-family="Times,serif" font-size="14.00" fill="#000000">a</text>
    </g>
    <g id="node3" class="node">
        <title></title>
    </g>
    <!-- &#45;&gt;0 -->
    <g id="edge1" class="edge">
      <title>-&gt;0</title>
      <path fill="none" stroke="#000000" d="M54.0661,-22C69.3856,-22 88.5175,-22 104.0034,-22"></path>
      <polygon fill="#000000" stroke="#000000" points="104.0503,-25.5001 114.0503,-22 104.0503,-18.5001 104.0503,-25.5001"></polygon>
      <text text-anchor="middle" x="84.0505" y="-26.2" font-family="Times,serif" font-size="14.00" fill="#000000">start</text>
    </g>
  </g>
</svg>
