<svg width="406pt" height="98pt" viewBox="0.00 0.00 406.00 98.00" xmlns="http://www.w3.org/2000/svg" xmlns:xlink="http://www.w3.org/1999/xlink">
<g id="graph0" class="graph" transform="scale(1 1) rotate(0) translate(4 94)">
<title>finite_state_machine</title>
<polygon fill="white" stroke="none" points="-4,4 -4,-94 402,-94 402,4 -4,4"></polygon>
<!-- 0 -->
<g id="node1" class="node"><title>0</title>
<ellipse fill="none" stroke="black" cx="132" cy="-41" rx="18" ry="18"></ellipse>
<text text-anchor="middle" x="132" y="-36.8" font-family="Times,serif" font-size="14.00">0</text>
</g>
<!-- 1 -->
<g id="node4" class="node"><title>1</title>
<ellipse fill="none" stroke="black" cx="212" cy="-72" rx="18" ry="18"></ellipse>
<text text-anchor="middle" x="212" y="-67.8" font-family="Times,serif" font-size="14.00">1</text>
</g>
<!-- 0&#45;&gt;1 -->
<g id="edge2" class="edge"><title>0-&gt;1</title>
<path fill="none" stroke="black" d="M149.162,-47.4232C159.69,-51.6075 173.646,-57.1543 185.636,-61.9194"></path>
<polygon fill="black" stroke="black" points="184.54,-65.2502 195.126,-65.6911 187.126,-58.7451 184.54,-65.2502"></polygon>
<text text-anchor="middle" x="172" y="-62.2" font-family="Times,serif" font-size="14.00">ε</text>
</g>
<!-- 2 -->
<g id="node5" class="node"><title>2</title>
<ellipse fill="none" stroke="black" cx="212" cy="-18" rx="18" ry="18"></ellipse>
<text text-anchor="middle" x="212" y="-13.8" font-family="Times,serif" font-size="14.00">2</text>
</g>
<!-- 0&#45;&gt;2 -->
<g id="edge3" class="edge"><title>0-&gt;2</title>
<path fill="none" stroke="black" d="M149.305,-35.2376C155.171,-33.2352 161.855,-31.0336 168,-29.2 173.225,-27.6407 178.844,-26.0886 184.239,-24.6586"></path>
<polygon fill="black" stroke="black" points="185.373,-27.9806 194.179,-22.0894 183.621,-21.2034 185.373,-27.9806"></polygon>
<text text-anchor="middle" x="172" y="-34.2" font-family="Times,serif" font-size="14.00">ε</text>
</g>
<!-- 5 -->
<g id="node2" class="node"><title>5</title>
<ellipse fill="none" stroke="black" cx="376" cy="-46" rx="18" ry="18"></ellipse>
<ellipse fill="none" stroke="black" cx="376" cy="-46" rx="22" ry="22"></ellipse>
<text text-anchor="middle" x="376" y="-41.8" font-family="Times,serif" font-size="14.00">5</text>
</g>
<g id="node3" class="node"><title></title>
</g>
<!-- &#45;&gt;0 -->
<g id="edge1" class="edge"><title>-&gt;0</title>
<path fill="none" stroke="black" d="M54.2578,-41C69.3176,-41 88.2033,-41 103.471,-41"></path>
<polygon fill="black" stroke="black" points="103.843,-44.5001 113.843,-41 103.843,-37.5001 103.843,-44.5001"></polygon>
<text text-anchor="middle" x="84" y="-45.2" font-family="Times,serif" font-size="14.00">start</text>
</g>
<!-- 3 -->
<g id="node6" class="node"><title>3</title>
<ellipse fill="none" stroke="black" cx="292" cy="-72" rx="18" ry="18"></ellipse>
<text text-anchor="middle" x="292" y="-67.8" font-family="Times,serif" font-size="14.00">3</text>
</g>
<!-- 1&#45;&gt;3 -->
<g id="edge4" class="edge"><title>1-&gt;3</title>
<path fill="none" stroke="black" d="M230.311,-72C240.106,-72 252.578,-72 263.665,-72"></path>
<polygon fill="black" stroke="black" points="263.738,-75.5001 273.738,-72 263.738,-68.5001 263.738,-75.5001"></polygon>
<text text-anchor="middle" x="252" y="-76.2" font-family="Times,serif" font-size="14.00">a</text>
</g>
<!-- 4 -->
<g id="node7" class="node"><title>4</title>
<ellipse fill="none" stroke="black" cx="292" cy="-18" rx="18" ry="18"></ellipse>
<text text-anchor="middle" x="292" y="-13.8" font-family="Times,serif" font-size="14.00">4</text>
</g>
<!-- 2&#45;&gt;4 -->
<g id="edge5" class="edge"><title>2-&gt;4</title>
<path fill="none" stroke="black" d="M230.311,-18C240.106,-18 252.578,-18 263.665,-18"></path>
<polygon fill="black" stroke="black" points="263.738,-21.5001 273.738,-18 263.738,-14.5001 263.738,-21.5001"></polygon>
<text text-anchor="middle" x="252" y="-22.2" font-family="Times,serif" font-size="14.00">b</text>
</g>
<!-- 3&#45;&gt;5 -->
<g id="edge6" class="edge"><title>3-&gt;5</title>
<path fill="none" stroke="black" d="M309.594,-66.7385C319.758,-63.5158 333.068,-59.2955 345.026,-55.5038"></path>
<polygon fill="black" stroke="black" points="346.18,-58.8098 354.655,-52.451 344.064,-52.1372 346.18,-58.8098"></polygon>
<text text-anchor="middle" x="332" y="-65.2" font-family="Times,serif" font-size="14.00">ε</text>
</g>
<!-- 4&#45;&gt;5 -->
<g id="edge7" class="edge"><title>4-&gt;5</title>
<path fill="none" stroke="black" d="M309.201,-23.5319C319.484,-27.0432 333.1,-31.6927 345.278,-35.8509"></path>
<polygon fill="black" stroke="black" points="344.469,-39.2731 355.063,-39.1924 346.731,-32.6487 344.469,-39.2731"></polygon>
<text text-anchor="middle" x="332" y="-36.2" font-family="Times,serif" font-size="14.00">ε</text>
</g>
</g>
</svg>
